<svg xmlns="http://www.w3.org/2000/svg" viewBox="0 0 1000 1000"><path fill="#fff" d="M592.717245657969 480.20594381764795C638.723680284199 480.20594381764795 676.1216332690401 517.6044707459052 676.1216332690401 563.6103314287191C676.1216332690401 609.6167573588366 638.723680284199 647.0147190397902 592.717245657969 647.0147190397902C546.7108197278515 647.0147190397902 509.3128580468979 609.6161834154204 509.3128580468979 563.6103314287191C509.3128580468979 517.6529167878946 546.7113936712676 480.20594381764795 592.717245657969 480.20594381764795ZM592.717245657969 626.7835353771516C627.5380796548985 626.7835266810392 655.8904583025139 598.4311567295363 655.8904583025139 563.6103227326066C655.8904583025139 528.7894887356772 627.5380796548985 500.4371100880618 592.717245657969 500.4371100880618C557.8964116610395 500.4371100880618 529.5924790554134 528.7410426936879 529.5924790554134 563.6103227326066C529.5924790554134 598.4795940754132 557.8964116610395 626.7835266810392 592.717245657969 626.7835266810392ZM593.2523957168416 426.4675608920422C669.1676217896749 426.4675608920422 730.9303076162789 488.23081196594995 730.9303076162789 564.145464095367C730.8818615742896 637.9206812683503 605.7995031786775 766.5530014383369 600.4987878861664 771.9996114080074L593.2524044129541 779.391889558379L586.0060209397416 771.9996114080074C580.7053056472305 766.5524187988084 455.52606386375226 637.8716612829448 455.52606386375226 564.1454553992546C455.57450120962926 488.2302380225338 517.3377609796494 426.46755219592984 593.2524131090663 426.46755219592984ZM593.3008504549433 750.2604522922579C631.7690948614174 709.4094209209084 710.6991326497526 615.0627933850909 710.6991326497526 564.1448901519509C710.6506866077634 499.4152647084181 657.9820298564869 446.7466079571415 593.2524044129541 446.7466079571415C528.5227702733089 446.7466079571415 475.80567617615543 499.4152647084181 475.80567617615543 564.1448901519509C475.80567617615543 615.111804674384 554.7841513103674 709.4094209209084 593.300841758831 750.2604609883703ZM590.4313594731846 233.10618052582657 590.4319334166007 233.10560658241042 780.0 283.8291690964018V773.2636696053728L675.0029218937549 745.3489836853478L677.9208502213905 742.431055357712C682.1518567317972 738.2000662395301 686.3828545460915 733.9200484398305 690.6138523603857 729.6406132796592L760.8385338155783 748.3153754471975V298.5162941541999L599.7202945149644 255.42837049513423V401.27647997272896H580.5594022739588V254.7478997025184L419.44116297334494 288.7417942862566V739.1244629840038L493.7509562617848 723.5135325173729C498.9057768771366 728.8632677952895 504.0121514504991 734.3098864610723 509.0700886779847 739.8539537620251L409.6170778726924 760.8146195065726L220.0 710.0910569925811V220.60811044162085L410.15165398814895 271.13675829304754ZM400.2796880928109 738.4428616967804V738.4434356401965V288.35256499288033L239.16144879219695 245.50741939884023V695.3549380377148Z"/></svg>
